<?xml version="1.0" encoding="UTF-8" standalone="no"?>
<!-- Created with Inkscape (http://www.inkscape.org/) -->

<svg
   xmlns:dc="http://purl.org/dc/elements/1.1/"
   xmlns:cc="http://creativecommons.org/ns#"
   xmlns:rdf="http://www.w3.org/1999/02/22-rdf-syntax-ns#"
   xmlns:svg="http://www.w3.org/2000/svg"
   xmlns="http://www.w3.org/2000/svg"
   xmlns:sodipodi="http://sodipodi.sourceforge.net/DTD/sodipodi-0.dtd"
   xmlns:inkscape="http://www.inkscape.org/namespaces/inkscape"
   width="210mm"
   height="297mm"
   viewBox="0 0 744.09448819 1052.3622047"
   id="svg2"
   version="1.1"
   inkscape:version="0.91 r13725"
   sodipodi:docname="poop.svg"
   inkscape:export-filename="C:\Users\Kelvin Mason\Desktop\Poop\poop.png"
   inkscape:export-xdpi="90"
   inkscape:export-ydpi="90">
  <defs
     id="defs4">
    <filter
       inkscape:collect="always"
       style="color-interpolation-filters:sRGB"
       id="filter4515"
       x="-0.027909175"
       width="1.0558183"
       y="-0.17134569"
       height="1.3426914">
      <feGaussianBlur
         inkscape:collect="always"
         stdDeviation="1.1558623"
         id="feGaussianBlur4517" />
    </filter>
    <filter
       inkscape:collect="always"
       style="color-interpolation-filters:sRGB"
       id="filter4553"
       x="-0.045153192"
       width="1.0903064"
       y="-0.11471351"
       height="1.229427">
      <feGaussianBlur
         inkscape:collect="always"
         stdDeviation="1.2632142"
         id="feGaussianBlur4555" />
    </filter>
    <filter
       inkscape:collect="always"
       style="color-interpolation-filters:sRGB"
       id="filter4705"
       x="-0.072815218"
       width="1.1456304"
       y="-0.066656716"
       height="1.1333134">
      <feGaussianBlur
         inkscape:collect="always"
         stdDeviation="1.9937499"
         id="feGaussianBlur4707" />
    </filter>
    <filter
       inkscape:collect="always"
       style="color-interpolation-filters:sRGB"
       id="filter4777"
       x="-0.080254046"
       width="1.1605081"
       y="-0.21995561"
       height="1.4399112">
      <feGaussianBlur
         inkscape:collect="always"
         stdDeviation="1.7675001"
         id="feGaussianBlur4779" />
    </filter>
    <filter
       inkscape:collect="always"
       style="color-interpolation-filters:sRGB"
       id="filter4827"
       x="-0.18599999"
       width="1.372"
       y="-0.068008812"
       height="1.1360176">
      <feGaussianBlur
         inkscape:collect="always"
         stdDeviation="2.2973215"
         id="feGaussianBlur4829" />
    </filter>
    <filter
       inkscape:collect="always"
       style="color-interpolation-filters:sRGB"
       id="filter4843"
       x="-0.1328108"
       width="1.2656216"
       y="-0.11985367"
       height="1.2397073">
      <feGaussianBlur
         inkscape:collect="always"
         stdDeviation="0.73125019"
         id="feGaussianBlur4845" />
    </filter>
    <filter
       inkscape:collect="always"
       style="color-interpolation-filters:sRGB"
       id="filter4937"
       x="-0.17482019"
       width="1.3496404"
       y="-0.079397498"
       height="1.158795">
      <feGaussianBlur
         inkscape:collect="always"
         stdDeviation="2.8356251"
         id="feGaussianBlur4939" />
    </filter>
    <filter
       inkscape:collect="always"
       style="color-interpolation-filters:sRGB"
       id="filter5199"
       x="-0.10645718"
       width="1.2129144"
       y="-0.37259952"
       height="1.745199">
      <feGaussianBlur
         inkscape:collect="always"
         stdDeviation="0.93541264"
         id="feGaussianBlur5201" />
    </filter>
    <filter
       inkscape:collect="always"
       style="color-interpolation-filters:sRGB"
       id="filter5271"
       x="-0.11761906"
       width="1.2352381"
       y="-0.074472357"
       height="1.1489447">
      <feGaussianBlur
         inkscape:collect="always"
         stdDeviation="1.1026787"
         id="feGaussianBlur5273" />
    </filter>
    <filter
       inkscape:collect="always"
       style="color-interpolation-filters:sRGB"
       id="filter5539"
       x="-0.30720609"
       width="1.6144122"
       y="-0.14589251"
       height="1.291785">
      <feGaussianBlur
         inkscape:collect="always"
         stdDeviation="0.56992725"
         id="feGaussianBlur5541" />
    </filter>
    <filter
       inkscape:collect="always"
       style="color-interpolation-filters:sRGB"
       id="filter5543"
       x="-0.27609733"
       width="1.5521947"
       y="-0.12960256"
       height="1.2592051">
      <feGaussianBlur
         inkscape:collect="always"
         stdDeviation="0.56992725"
         id="feGaussianBlur5545" />
    </filter>
    <filter
       inkscape:collect="always"
       style="color-interpolation-filters:sRGB"
       id="filter5547"
       x="-0.2485565"
       width="1.497113"
       y="-0.12464669"
       height="1.2492934">
      <feGaussianBlur
         inkscape:collect="always"
         stdDeviation="0.56992725"
         id="feGaussianBlur5549" />
    </filter>
    <filter
       inkscape:collect="always"
       style="color-interpolation-filters:sRGB"
       id="filter5551"
       x="-0.27381599"
       width="1.547632"
       y="-0.13707011"
       height="1.2741402">
      <feGaussianBlur
         inkscape:collect="always"
         stdDeviation="0.56992725"
         id="feGaussianBlur5553" />
    </filter>
    <filter
       inkscape:collect="always"
       style="color-interpolation-filters:sRGB"
       id="filter5565"
       x="-0.083839099"
       width="1.1676782"
       y="-0.13832255"
       height="1.2766451">
      <feGaussianBlur
         inkscape:collect="always"
         stdDeviation="1.1740335"
         id="feGaussianBlur5567" />
    </filter>
    <filter
       inkscape:collect="always"
       style="color-interpolation-filters:sRGB"
       id="filter5711"
       x="-0.17544492"
       width="1.3508898"
       y="-0.057311997"
       height="1.114624">
      <feGaussianBlur
         inkscape:collect="always"
         stdDeviation="0.73405206"
         id="feGaussianBlur5713" />
    </filter>
    <filter
       inkscape:collect="always"
       style="color-interpolation-filters:sRGB"
       id="filter5749"
       x="-0.11834286"
       width="1.2366857"
       y="-0.074185075"
       height="1.1483702">
      <feGaussianBlur
         inkscape:collect="always"
         stdDeviation="4.8016046"
         id="feGaussianBlur5751" />
    </filter>
    <filter
       inkscape:collect="always"
       style="color-interpolation-filters:sRGB"
       id="filter6367"
       x="-0.19867438"
       width="1.3973488"
       y="-0.19074836"
       height="1.3814967">
      <feGaussianBlur
         inkscape:collect="always"
         stdDeviation="1.744602"
         id="feGaussianBlur6369" />
    </filter>
    <filter
       inkscape:collect="always"
       style="color-interpolation-filters:sRGB"
       id="filter6371"
       x="-0.13481113"
       width="1.2696223"
       y="-0.10874416"
       height="1.2174883">
      <feGaussianBlur
         inkscape:collect="always"
         stdDeviation="1.744602"
         id="feGaussianBlur6373" />
    </filter>
    <filter
       inkscape:collect="always"
       style="color-interpolation-filters:sRGB"
       id="filter6375"
       x="-0.19312801"
       width="1.386256"
       y="-0.13073651"
       height="1.261473">
      <feGaussianBlur
         inkscape:collect="always"
         stdDeviation="1.744602"
         id="feGaussianBlur6377" />
    </filter>
    <filter
       inkscape:collect="always"
       style="color-interpolation-filters:sRGB"
       id="filter6397"
       x="-0.11050393"
       width="1.2210079"
       y="-0.098935104"
       height="1.1978702">
      <feGaussianBlur
         inkscape:collect="always"
         stdDeviation="1.5678188"
         id="feGaussianBlur6399" />
    </filter>
    <filter
       inkscape:collect="always"
       style="color-interpolation-filters:sRGB"
       id="filter6407"
       x="-0.061823966"
       width="1.1236479"
       y="-0.21123188"
       height="1.4224638">
      <feGaussianBlur
         inkscape:collect="always"
         stdDeviation="2.1123188"
         id="feGaussianBlur6409" />
    </filter>
    <filter
       inkscape:collect="always"
       style="color-interpolation-filters:sRGB"
       id="filter6439"
       x="-0.052293226"
       width="1.1045865"
       y="-0.15341918"
       height="1.3068384">
      <feGaussianBlur
         inkscape:collect="always"
         stdDeviation="1.5368524"
         id="feGaussianBlur6441" />
    </filter>
    <filter
       inkscape:collect="always"
       style="color-interpolation-filters:sRGB"
       id="filter6593"
       x="-0.067146146"
       width="1.1342923"
       y="-0.69832017"
       height="2.3966403">
      <feGaussianBlur
         inkscape:collect="always"
         stdDeviation="0.77154196"
         id="feGaussianBlur6595" />
    </filter>
    <filter
       inkscape:collect="always"
       style="color-interpolation-filters:sRGB"
       id="filter6597"
       x="-0.081834371"
       width="1.1636687"
       y="-1.0474783"
       height="3.0949566">
      <feGaussianBlur
         inkscape:collect="always"
         stdDeviation="0.77154196"
         id="feGaussianBlur6599" />
    </filter>
    <filter
       inkscape:collect="always"
       style="color-interpolation-filters:sRGB"
       id="filter6689"
       x="-0.050583199"
       width="1.1011664"
       y="-0.17031088"
       height="1.3406218">
      <feGaussianBlur
         inkscape:collect="always"
         stdDeviation="2.8540074"
         id="feGaussianBlur6691" />
    </filter>
  </defs>
  <sodipodi:namedview
     id="base"
     pagecolor="#ffffff"
     bordercolor="#666666"
     borderopacity="1.0"
     inkscape:pageopacity="0.0"
     inkscape:pageshadow="2"
     inkscape:zoom="1"
     inkscape:cx="325.34562"
     inkscape:cy="441.78484"
     inkscape:document-units="px"
     inkscape:current-layer="layer1"
     showgrid="false"
     inkscape:window-width="1366"
     inkscape:window-height="705"
     inkscape:window-x="-8"
     inkscape:window-y="-8"
     inkscape:window-maximized="1" />
  <metadata
     id="metadata7">
    <rdf:RDF>
      <cc:Work
         rdf:about="">
        <dc:format>image/svg+xml</dc:format>
        <dc:type
           rdf:resource="http://purl.org/dc/dcmitype/StillImage" />
        <dc:title></dc:title>
      </cc:Work>
    </rdf:RDF>
  </metadata>
  <g
     inkscape:label="Layer 1"
     inkscape:groupmode="layer"
     id="layer1">
    <text
       xml:space="preserve"
       style="font-style:normal;font-weight:normal;font-size:40px;line-height:125%;font-family:sans-serif;letter-spacing:0px;word-spacing:0px;fill:#000000;fill-opacity:1;stroke:none;stroke-width:1px;stroke-linecap:butt;stroke-linejoin:miter;stroke-opacity:1"
       x="491.14899"
       y="242.88841"
       id="text3336"
       sodipodi:linespacing="125%"><tspan
         sodipodi:role="line"
         id="tspan3338"
         x="491.14899"
         y="242.88841"
         style="font-style:normal;font-variant:normal;font-weight:normal;font-stretch:normal;font-family:'Lobster 1.4';-inkscape-font-specification:'Lobster 1.4, '">The Poop</tspan><tspan
         sodipodi:role="line"
         x="491.14899"
         y="292.88843"
         style="font-style:normal;font-variant:normal;font-weight:normal;font-stretch:normal;font-family:'Lobster 1.4';-inkscape-font-specification:'Lobster 1.4, '"
         id="tspan5753"> Archives</tspan><tspan
         sodipodi:role="line"
         x="491.14899"
         y="342.88843"
         style="font-style:normal;font-variant:normal;font-weight:normal;font-stretch:normal;font-family:'Lobster 1.4';-inkscape-font-specification:'Lobster 1.4, '"
         id="tspan5715" /></text>
    <text
       xml:space="preserve"
       style="font-style:normal;font-weight:normal;font-size:40px;line-height:125%;font-family:sans-serif;letter-spacing:0px;word-spacing:0px;fill:#000000;fill-opacity:1;stroke:none;stroke-width:1px;stroke-linecap:butt;stroke-linejoin:miter;stroke-opacity:1"
       x="326.78436"
       y="164.94319"
       id="text3351"
       sodipodi:linespacing="125%"><tspan
         sodipodi:role="line"
         id="tspan3353"
         x="326.78436"
         y="164.94319" /></text>
    <path
       sodipodi:type="star"
       style="opacity:0.86199999;fill:#e8ff00;fill-opacity:1;stroke:#ffe400;stroke-width:1;stroke-miterlimit:4;stroke-dasharray:none;stroke-opacity:1"
       id="path5717"
       sodipodi:sides="10"
       sodipodi:cx="344.2966"
       sodipodi:cy="324.35457"
       sodipodi:r1="141.50423"
       sodipodi:r2="70.752113"
       sodipodi:arg1="-0.61072596"
       sodipodi:arg2="-0.2965667"
       inkscape:flatsided="false"
       inkscape:rounded="0"
       inkscape:randomized="0"
       d="m 460.22138,243.20724 -48.26132,60.47085 73.81887,23.16579 -74.5881,20.55466 46.10421,62.13115 -72.42477,-27.21272 0.77931,77.36454 -42.59763,-64.58576 -44.84325,63.04729 3.50035,-77.28924 -73.33723,24.64813 48.26132,-60.47085 -73.81887,-23.16579 74.5881,-20.55466 -46.10421,-62.13115 72.42477,27.21271 -0.77931,-77.36453 42.59763,64.58576 44.84325,-63.04729 -3.50035,77.28923 z" />
    <path
       style="fill:#b8cb00;fill-opacity:1;fill-rule:evenodd;stroke:none;stroke-width:1px;stroke-linecap:butt;stroke-linejoin:miter;stroke-opacity:1;filter:url(#filter5749)"
       d="m 329.80602,411.29814 c 0,0 -5.79624,-2.3185 -5.79624,-4.63699 0,-2.3185 2.89812,-13.91098 2.89812,-17.96834 0,-4.05737 0.57962,-8.69436 0,-13.91098 -0.57963,-5.21661 -0.57963,-11.01285 -4.637,-13.91097 -4.05736,-2.89812 -6.37586,-6.37587 -11.01285,-9.27399 -4.63699,-2.89812 -6.95549,-4.05736 -10.43323,-8.69435 -3.47774,-4.637 -6.95549,-9.27399 -8.69436,-12.75173 -1.73887,-3.47774 -4.63699,-16.22947 -5.21662,-20.28684 -0.57962,-4.05737 -2.89812,-20.86646 -2.89812,-20.86646 l -1.15924,-33.03856 c 0,0 30.14044,15.07022 35.35706,17.96834 5.21661,2.89812 62.01976,66.65675 62.01976,66.65675 z"
       id="path5719"
       inkscape:connector-curvature="0" />
    <path
       style="fill:#d2d2d2;fill-opacity:1;fill-rule:evenodd;stroke:#6a6a6a;stroke-width:1;stroke-linecap:butt;stroke-linejoin:miter;stroke-miterlimit:4;stroke-dasharray:none;stroke-opacity:1"
       d="m 403.53854,392.19707 -1.78572,4.64286 7.14286,46.42857 c -6.03457,10.70762 -18.60378,12.60666 -30.71428,10.71428 -20.46895,-7.17741 -36.10588,-10.86921 -50.35715,-25.71428 l 7.85715,-36.42857 c -6.63649,-4.52928 -7.06254,-7.98738 -5,-15 l 3.92857,-6.07143 6.78571,-3.57143 c 0,0 51.42857,15.71429 52.85714,15.71429 1.42858,0 9.28572,9.28571 9.28572,9.28571 z"
       id="path4169"
       inkscape:connector-curvature="0"
       sodipodi:nodetypes="cccccccccsc" />
    <path
       style="fill:#737373;fill-opacity:1;fill-rule:evenodd;stroke:none;stroke-width:1px;stroke-linecap:butt;stroke-linejoin:miter;stroke-opacity:1;filter:url(#filter4705)"
       d="m 343.93444,379.68656 31.78571,17.5 c 0,0 9.64286,3.21429 10.71429,4.64286 1.07143,1.42857 5.35714,3.57143 7.5,7.85714 2.14286,4.28572 8.57143,25.35714 8.92857,27.14286 0.35714,1.78571 1.42857,10.35714 1.42857,10.35714 l 5.35714,-3.21428 -8.92857,-41.07143 1.07143,-10.71429 -49.64286,-16.78571 z"
       id="path4559"
       inkscape:connector-curvature="0" />
    <path
       style="fill:#d2d2d2;fill-opacity:1;fill-rule:evenodd;stroke:#6a6a6a;stroke-width:1;stroke-linecap:butt;stroke-linejoin:miter;stroke-miterlimit:4;stroke-dasharray:none;stroke-opacity:1"
       d="m 313.30852,338.13869 0.50508,6.56599 2.52538,3.03046 3.53553,2.02031 c -0.0582,4.71127 2.86386,7.76574 6.06092,9.59645 7.25954,4.13654 11.94257,10.36071 17.17259,16.66751 18.6146,12.94878 24.11542,14.1599 45.20433,17.1726 22.39411,-1.23674 28.4627,-3.82016 40.4061,-20.45559 2.78984,-4.19087 3.38614,-8.05619 3.78807,-12.87945 l -1.51523,-5.05076 -46.71955,-18.18275 -9.34391,-2.52538 -6.06092,-3.53553 z"
       id="path4165"
       inkscape:connector-curvature="0"
       sodipodi:nodetypes="cccccccccccccc" />
    <path
       style="fill:#737373;fill-opacity:1;fill-rule:evenodd;stroke:none;stroke-width:0.88456297px;stroke-linecap:butt;stroke-linejoin:miter;stroke-opacity:1;filter:url(#filter4515)"
       d="m 331.02175,354.98512 34.32391,15.35249 c 0,0 11.79884,0.83741 15.01671,0.83741 3.21788,0 15.37425,0 19.3072,0 3.93296,0 23.24016,-4.74532 23.24016,-4.74532 l 6.07819,-3.62877 1.43016,-3.9079 -53.98865,2.51223 -33.96637,-5.02445 z"
       id="path4179"
       inkscape:connector-curvature="0" />
    <path
       style="opacity:0.86199999;fill:#737373;fill-opacity:1;fill-rule:evenodd;stroke:none;stroke-width:1px;stroke-linecap:butt;stroke-linejoin:miter;stroke-opacity:1;filter:url(#filter4777)"
       d="m 326.79158,349.68656 -4.64286,-6.78571 3.21429,-6.78572 c 0,0 18.92857,-5.71428 21.42857,-5.71428 2.5,0 22.14286,0 22.14286,0 l 6.07143,4.64285 -35.35715,10.35715 z"
       id="path4711"
       inkscape:connector-curvature="0" />
    <path
       style="fill:#d2d2d2;fill-opacity:1;fill-rule:evenodd;stroke:#6a6a6a;stroke-width:1;stroke-linecap:butt;stroke-linejoin:miter;stroke-miterlimit:4;stroke-dasharray:none;stroke-opacity:1"
       d="m 322.90497,347.4826 c 0,0 3.20333,4.42503 6.56599,6.06092 l 36.08014,14.70849 c 10.95554,4.95939 79.04887,-1.44339 66.45035,-19.00164 -11.119,-7.25759 -23.80148,-11.18428 -36.11296,-15.9099 -16.78524,-1.30506 -30.06537,2.18724 -46.46701,5.80838 l -21.21321,4.04061 c -3.10233,0.64479 -3.80675,1.72764 -5.3033,4.29314 z"
       id="path4159"
       inkscape:connector-curvature="0"
       sodipodi:nodetypes="cccccccc" />
    <ellipse
       id="path4157"
       cx="380.47552"
       cy="350.26053"
       rx="29.033739"
       ry="8.3337584"
       style="fill:#6b6b6b;fill-opacity:1" />
    <path
       style="fill:#d2d2d2;fill-opacity:1;fill-rule:evenodd;stroke:#6a6a6a;stroke-width:1;stroke-linecap:butt;stroke-linejoin:miter;stroke-miterlimit:4;stroke-dasharray:none;stroke-opacity:1"
       d="m 285.27679,251.51811 2.52538,34.59773 5.80838,33.08249 7.3236,15.15229 12.12183,3.78807 12.87945,-0.25254 50.40849,-65.17914 -3.9489,-30.21464 -47.72228,4.73259 z"
       id="path4163"
       inkscape:connector-curvature="0"
       sodipodi:nodetypes="cccccccccc" />
    <path
       style="fill:#e2e2e2;fill-opacity:1;fill-rule:evenodd;stroke:#6a6a6a;stroke-width:1;stroke-linecap:butt;stroke-linejoin:miter;stroke-miterlimit:4;stroke-dasharray:none;stroke-opacity:1"
       d="m 313.30852,256.31634 c 0,0 -28.03173,0.50507 -28.03173,-2.02031 0,-2.52538 -1.76777,-4.29315 0.50507,-5.80838 2.27285,-1.51522 12.37437,-4.29314 12.37437,-4.29314 l 29.54697,-5.55584 35.60787,-1.01016 6.81853,2.27285 3.283,2.77792 0.50507,2.0203 z"
       id="path4161"
       inkscape:connector-curvature="0" />
    <path
       style="fill:#d2d2d2;fill-opacity:1;fill-rule:evenodd;stroke:#6a6a6a;stroke-width:1;stroke-linecap:butt;stroke-linejoin:miter;stroke-miterlimit:4;stroke-dasharray:none;stroke-opacity:1"
       d="m 324.67274,340.91661 56.56854,-10.6066 c 2.88465,-2.53118 3.78177,-5.60163 5.05076,-9.09137 l -1.51523,-42.42641 c -0.38322,-11.9773 -4.43391,-23.26214 -11.06872,-31.56863 -7.60279,-9.51835 -18.59871,-15.1259 -31.35768,-13.38316 -11.79485,-0.11647 -31.12369,22.19921 -31.81981,32.82996 -2.12128,22.6072 0.35486,44.40532 3.53554,66.67007 3.01537,4.81068 5.47435,6.17643 10.6066,7.57614 z"
       id="path3355"
       inkscape:connector-curvature="0"
       sodipodi:nodetypes="ccccscccc" />
    <path
       style="opacity:0.51799999;fill:#737373;fill-opacity:1;fill-rule:evenodd;stroke:none;stroke-width:1px;stroke-linecap:butt;stroke-linejoin:miter;stroke-opacity:1;filter:url(#filter4553)"
       d="m 421.79158,370.40085 -12.14286,12.85714 -11.07142,1.07143 -27.5,-0.35714 -32.14286,-14.28572 c 10.71429,6.42858 13.60543,12.85715 32.14286,19.28572 4.4896,0.69666 16.37855,3.50742 13.46879,2.08998 l 7.24549,1.1243 16.86409,-1.82376 3.49305,-3.17624 7.9801,-3.49532 4.87705,-7.21896 6.07142,-15.71429 z"
       id="path4519"
       inkscape:connector-curvature="0"
       sodipodi:nodetypes="cccccccccccccc" />
    <path
       style="fill:#737373;fill-opacity:1;fill-rule:evenodd;stroke:none;stroke-width:1px;stroke-linecap:butt;stroke-linejoin:miter;stroke-opacity:1;filter:url(#filter4827)"
       d="m 295,259.8622 1.78571,37.14286 8.21429,29.64286 10.35714,8.92857 5.35715,2.85714 -0.35715,1.78572 -12.85714,-3.92857 -2.85714,-1.42858 -6.78572,-16.78571 -6.78571,-45 0,-13.92857 z"
       id="path4781"
       inkscape:connector-curvature="0"
       transform="matrix(0.89543121,0,0,0.96138601,29.314145,11.217769)" />
    <path
       style="fill:#ffffff;fill-opacity:1;fill-rule:evenodd;stroke:none;stroke-width:1px;stroke-linecap:butt;stroke-linejoin:miter;stroke-opacity:1;filter:url(#filter4843)"
       d="m 411.79158,343.25799 8.92857,6.07143 -0.71428,3.21428 -2.5,3.21429 -2.14286,2.14286 9.28571,-5 0.35715,-2.85715 -1.78572,-2.85714 -6.42857,-2.5 z"
       id="path4833"
       inkscape:connector-curvature="0" />
    <path
       style="fill:#ffffff;fill-opacity:1;fill-rule:evenodd;stroke:none;stroke-width:1px;stroke-linecap:butt;stroke-linejoin:miter;stroke-opacity:1;filter:url(#filter4937)"
       d="m 343.93444,240.40085 15.71428,-1.07143 c 0,0 2.85715,1.42857 3.92858,2.85714 1.07142,1.42857 1.07142,1.42857 3.21428,5 2.14286,3.57143 3.21429,3.92857 6.07143,10 2.85714,6.07143 6.07143,15.71429 6.42857,18.92857 0.35714,3.21429 0.35714,8.21429 0.35714,13.57143 0,5.35714 1.07143,13.57143 1.42858,17.5 0.35714,3.92857 0.35714,11.78571 0.35714,11.78571 l 0,5.71429 c 0,0 -3.92857,-8.57143 -4.28572,-10.71429 -0.35714,-2.14285 -0.71428,-2.5 -0.71428,-7.85714 0,-5.35714 1.42857,-5 0,-10 -1.42857,-5 -2.85714,-7.5 -3.57143,-10.71428 -0.71429,-3.21429 -1.07143,-7.5 -2.85714,-13.57143 -1.78572,-6.07143 -2.14286,-6.78572 -2.85715,-8.57143 -0.71428,-1.78572 -1.78571,-3.92857 -3.57142,-7.14286 -1.78572,-3.21428 -2.5,-4.64286 -3.92858,-6.78571 -1.42857,-2.14286 -2.14285,-4.28572 -3.92857,-5 -1.78571,-0.71429 -5.35714,-1.42857 -7.5,-2.5 -2.14285,-1.07143 -5.71428,-2.85715 -5.71428,-2.85715 l 3.92857,1.42858 z"
       id="path4847"
       inkscape:connector-curvature="0" />
    <path
       style="fill:#ffd8ac;fill-opacity:1;fill-rule:evenodd;stroke:#976f35;stroke-width:0.82984769px;stroke-linecap:butt;stroke-linejoin:miter;stroke-opacity:1"
       d="m 412.84764,257.42478 1.1855,-14.81872 0,-4.44561 -2.07462,-6.22386 -2.96374,-4.74198 -2.37099,-1.1855 -4.14924,0 -2.66737,2.66737 c 0,0 -0.29638,2.66737 -0.29638,3.85287 0,1.18549 -0.29637,7.11298 -0.29637,7.11298 0,0 0,2.37099 0.29637,3.55648 0.29638,1.1855 0.59275,2.66738 0.59275,4.44561 0,1.77825 0.59275,2.66738 -0.29637,4.14924 -0.88913,1.48188 -1.48187,3.26012 -2.371,4.44562 -0.88912,1.1855 -2.37099,2.96374 -2.37099,2.96374 l 12.74409,1.1855 z"
       id="path4978"
       inkscape:connector-curvature="0" />
    <path
       style="fill:#ffd8ac;fill-opacity:1;fill-rule:evenodd;stroke:#976f35;stroke-width:0.82984769px;stroke-linecap:butt;stroke-linejoin:miter;stroke-opacity:1"
       d="m 404.25279,314.03224 -2.66737,8.59486 c -0.27902,12.76817 0.59607,20.39963 -0.24308,33.05641 1.67695,-1.81669 -14.89672,7.78423 -39.05315,0.95736 l 6.10233,-28.0863 c 3.60534,-7.11246 6.45081,-14.56544 9.48397,-21.93168 l 6.22386,-12.74409 15.70783,10.3731 z"
       id="path4980"
       inkscape:connector-curvature="0"
       sodipodi:nodetypes="ccccccccc" />
    <path
       style="fill:#bf8a51;fill-opacity:1;fill-rule:evenodd;stroke:none;stroke-width:1px;stroke-linecap:butt;stroke-linejoin:miter;stroke-opacity:1;filter:url(#filter5271)"
       d="m 381.61301,299.86513 2.5,11.25 c 0,0 3.92857,2.14286 5.71429,3.21429 1.78571,1.07143 6.78571,3.92857 6.78571,3.92857 l 1.07143,6.07143 -1.79981,32.7338 3.94267,-1.66534 0.35714,-31.78275 3.21428,-9.82143 -7.85714,-3.03571 z"
       id="path5215"
       inkscape:connector-curvature="0"
       sodipodi:nodetypes="ccscccccccc" />
    <path
       style="fill:#bf8a51;fill-opacity:1;fill-rule:evenodd;stroke:none;stroke-width:1px;stroke-linecap:butt;stroke-linejoin:miter;stroke-opacity:1;filter:url(#filter5711)"
       d="m 403.16974,256.15262 6.55769,-5.53306 0.81972,-6.14784 c 1.76219,-11.96176 1.84435,-4.78332 1.84435,4.71334 l -0.61479,6.14784 c 0,0 0,2.45914 -0.81971,2.45914 -0.81971,0 -8.60697,-1.22957 -8.60697,-1.22957 z"
       id="path5571"
       inkscape:connector-curvature="0"
       sodipodi:nodetypes="cccccscc" />
    <path
       style="fill:#ffd8ac;fill-opacity:1;fill-rule:evenodd;stroke:#976f35;stroke-width:0.82984769px;stroke-linecap:butt;stroke-linejoin:miter;stroke-opacity:1"
       d="m 410.77302,313.73587 c 7.17389,-3.29481 7.60146,-6.96085 5.92748,-13.33684 4.67513,-6.04401 3.53022,-7.62676 0,-13.63321 4.3342,-5.21375 2.85035,-7.89995 0.29638,-13.04047 l 0,-3.55649 c 1.12604,-7.13091 -3.96289,-11.24923 -8.59486,-14.52233 l -10.37309,2.37099 c -4.7823,0.2965 -8.49773,1.42211 -12.44772,3.85287 -5.66866,7.31815 -6.29491,20.98854 -3.85286,29.63742 0.91339,2.77465 0.71282,6.18811 1.48187,8.59485 1.3992,3.31159 2.83693,6.56059 5.33474,9.1876 6.65629,6.08091 15.14339,5.48249 22.22806,4.44561 z"
       id="path4970"
       inkscape:connector-curvature="0"
       sodipodi:nodetypes="cccccccccccc" />
    <path
       inkscape:connector-curvature="0"
       id="path5073"
       d="m 742.53652,304.00609 -21.0882,-3.0126 0,3.0126 20.22746,3.01261 z"
       style="fill:#bf8a51;fill-opacity:1;fill-rule:evenodd;stroke:none;stroke-width:1.20504045px;stroke-linecap:butt;stroke-linejoin:miter;stroke-opacity:1;filter:url(#filter5199)"
       transform="matrix(0.82984769,0,0,0.82984769,-199.75778,19.550667)" />
    <path
       style="fill:#bf8a51;fill-opacity:1;fill-rule:evenodd;stroke:none;stroke-width:1.20504045px;stroke-linecap:butt;stroke-linejoin:miter;stroke-opacity:1;filter:url(#filter5199)"
       d="m 743.39726,322.0817 -21.0882,-3.0126 0,3.0126 20.22746,3.01261 z"
       id="path5207"
       inkscape:connector-curvature="0"
       transform="matrix(0.82984769,0,0,0.82984769,-199.75778,19.550667)" />
    <path
       inkscape:connector-curvature="0"
       id="path5209"
       d="m 742.10615,338.86619 -21.0882,-3.0126 0,3.0126 20.22746,3.01261 z"
       style="fill:#bf8a51;fill-opacity:1;fill-rule:evenodd;stroke:none;stroke-width:1.20504045px;stroke-linecap:butt;stroke-linejoin:miter;stroke-opacity:1;filter:url(#filter5199)"
       transform="matrix(0.82984769,0,0,0.82984769,-199.75778,19.550667)" />
    <path
       style="fill:none;fill-rule:evenodd;stroke:#976f35;stroke-width:0.82984769px;stroke-linecap:butt;stroke-linejoin:miter;stroke-opacity:1"
       d="m 417.77193,273.48975 -8.59484,-2.07462 -9.1876,0.29637"
       id="path4972"
       inkscape:connector-curvature="0" />
    <path
       style="fill:none;fill-rule:evenodd;stroke:#976f35;stroke-width:0.82984769px;stroke-linecap:butt;stroke-linejoin:miter;stroke-opacity:1"
       d="M 417.71117,287.00143 399.63235,286.1123"
       id="path4974"
       inkscape:connector-curvature="0" />
    <path
       style="fill:none;fill-rule:evenodd;stroke:#976f35;stroke-width:0.82984769px;stroke-linecap:butt;stroke-linejoin:miter;stroke-opacity:1"
       d="m 416.40413,301.28815 -7.40935,0 -7.11298,0 -3.55649,-1.18549"
       id="path4976"
       inkscape:connector-curvature="0" />
    <path
       style="opacity:0.86199999;fill:#bf8a51;fill-opacity:1;stroke:none;stroke-width:1;stroke-miterlimit:4;stroke-dasharray:none;stroke-opacity:1;filter:url(#filter5539)"
       id="path5275"
       d="m 391.67893,262.47979 c -0.31351,0.42288 -0.53961,0.93605 -0.77385,1.43641 -0.2388,0.45968 -0.40852,0.96363 -0.57316,1.47427 -0.15414,0.48628 -0.19247,1.01226 -0.21627,1.53334 -0.0351,0.41454 -0.005,0.79313 0.12505,1.16979 0.1461,0.30706 0.3576,0.51404 0.56305,0.74062 0.22033,0.20438 0.47532,0.3284 0.70277,0.51423 0.23718,0.19706 0.47978,0.40029 0.70126,0.62983 0,0 -2.23017,1.87708 -2.23017,1.87708 l 0,0 c -0.22337,-0.20731 -0.45,-0.41268 -0.68731,-0.59039 -0.2495,-0.16908 -0.5008,-0.3406 -0.72465,-0.56616 -0.23839,-0.25347 -0.46235,-0.53014 -0.62614,-0.87681 -0.14835,-0.42741 -0.21318,-0.85472 -0.17206,-1.32883 0.0192,-0.55371 0.0531,-1.10995 0.17772,-1.64236 0.164,-0.52804 0.32239,-1.05448 0.56184,-1.533 0.12507,-0.2524 0.23143,-0.5167 0.3522,-0.77201 0.28854,-0.60999 -0.0224,0.0828 0.27343,-0.48687 0.0383,-0.0736 0.0671,-0.15518 0.1007,-0.23279 0,0 2.44559,-1.34635 2.44559,-1.34635 z"
       inkscape:connector-curvature="0" />
    <path
       style="opacity:0.86199999;fill:#bf8a51;fill-opacity:1;stroke:none;stroke-width:1;stroke-miterlimit:4;stroke-dasharray:none;stroke-opacity:1;filter:url(#filter5543)"
       id="path5277"
       d="m 391.35807,274.75954 c -0.85161,0.50845 -2.26489,1.48124 1.45615,-1.12341 0.0884,-0.0619 -0.16573,0.14717 -0.24409,0.22828 -0.0766,0.0794 -0.14688,0.16831 -0.22032,0.25246 -0.41167,0.51724 -0.78128,1.07617 -1.07945,1.70839 -0.23428,0.50881 -0.38856,1.06006 -0.41228,1.65077 -0.005,0.49386 0.13479,0.93894 0.31626,1.36374 0.13221,0.40099 0.36529,0.70929 0.58127,1.03473 0.1761,0.25087 0.37776,0.45034 0.6015,0.6262 0.19673,0.20808 0.36839,0.43786 0.61422,0.54336 0.15634,0.13214 0.33613,0.19461 0.50398,0.29576 0,0 -2.19669,1.87486 -2.19669,1.87486 l 0,0 c -0.17257,-0.0878 -0.34224,-0.18171 -0.50701,-0.29177 -0.23857,-0.15577 -0.4285,-0.38585 -0.64071,-0.59214 -0.23349,-0.20863 -0.45391,-0.42925 -0.63642,-0.71248 -0.22586,-0.34263 -0.45661,-0.68404 -0.60212,-1.09746 -0.20322,-0.47117 -0.35289,-0.97808 -0.37018,-1.52209 -0.0144,-0.64638 0.12564,-1.25306 0.36985,-1.81913 0.011,-0.0245 0.28814,-0.64467 0.29801,-0.66358 0.21527,-0.41227 0.51111,-0.74708 0.7556,-1.1287 0.95309,-1.27296 2.25169,-2.00382 3.49442,-2.72665 0,0 -2.08199,2.09886 -2.08199,2.09886 z"
       inkscape:connector-curvature="0" />
    <path
       style="opacity:0.86199999;fill:#bf8a51;fill-opacity:1;stroke:none;stroke-width:1;stroke-miterlimit:4;stroke-dasharray:none;stroke-opacity:1;filter:url(#filter5547)"
       id="path5279"
       d="m 391.89379,287.9012 c -0.42484,0.14456 -0.80505,0.41701 -1.20355,0.63281 -0.0663,0.0415 -0.13271,0.0832 -0.19906,0.12469 0.68933,-0.44453 1.37516,-0.89607 2.068,-1.33362 0.0655,-0.0414 -0.12464,0.0945 -0.18516,0.14455 -0.18256,0.15109 -0.34921,0.32283 -0.51608,0.49489 -0.3389,0.35359 -0.61723,0.75518 -0.82004,1.22232 -0.19189,0.55293 -0.20732,1.15463 -0.22237,1.741 -0.007,0.44624 -0.001,0.89256 0.002,1.33881 -0.0182,0.40425 0.0781,0.78783 0.20952,1.15897 0.16155,0.32755 0.36443,0.6196 0.61011,0.87107 0.19973,0.2246 0.42985,0.42022 0.6609,0.60459 0.20056,0.23517 0.46967,0.34973 0.72696,0.48323 0,0 -2.20507,1.64265 -2.20507,1.64265 l 0,0 c -0.26617,-0.15102 -0.53696,-0.289 -0.75095,-0.53138 -0.23423,-0.20107 -0.48109,-0.3895 -0.67752,-0.63894 -0.25804,-0.29376 -0.48738,-0.61373 -0.65789,-0.98215 -0.14994,-0.39873 -0.27104,-0.8204 -0.25964,-1.25866 -10e-4,-0.45212 -0.004,-0.90433 0.007,-1.35634 0.0193,-0.61713 0.0458,-1.24023 0.17576,-1.84237 0.18053,-0.5035 0.42974,-0.94844 0.78112,-1.32465 0.91133,-1.07869 2.12358,-1.73719 3.2979,-2.40331 0.40507,-0.23262 0.81089,-0.46436 1.24016,-0.63582 0,0 -2.08198,1.84766 -2.08198,1.84766 z"
       inkscape:connector-curvature="0" />
    <path
       style="opacity:0.86199999;fill:#bf8a51;fill-opacity:1;stroke:none;stroke-width:1;stroke-miterlimit:4;stroke-dasharray:none;stroke-opacity:1;filter:url(#filter5551)"
       id="path5281"
       d="m 392.21968,300.4656 c -0.3897,-0.0247 -0.76874,-0.0161 -1.15041,0.0626 -0.85779,0.436 -0.42797,0.22002 2.01449,-1.14245 0.0389,-0.0217 -0.0749,0.0481 -0.11122,0.0739 -0.13124,0.0932 -0.2476,0.19953 -0.36319,0.31108 -0.26466,0.2794 -0.48017,0.58236 -0.60901,0.94534 -0.11577,0.34091 -0.20568,0.68578 -0.25157,1.04285 -0.0363,0.37585 -0.0392,0.754 -0.0404,1.13129 -0.005,0.43603 -9e-5,0.8721 0.003,1.30814 0.0168,0.36984 0.13402,0.72432 0.25559,1.07102 0.11048,0.3579 0.27893,0.68239 0.48602,0.99157 0.19426,0.29036 0.38113,0.58241 0.62754,0.83209 0.12528,0.14052 0.25369,0.2801 0.39508,0.40468 0,0 -2.24915,1.38892 -2.24915,1.38892 l 0,0 c -0.13826,-0.13561 -0.27261,-0.27594 -0.39811,-0.42347 -0.243,-0.27118 -0.44587,-0.56981 -0.64692,-0.87255 -0.21373,-0.32857 -0.39489,-0.67172 -0.51397,-1.04728 -0.13809,-0.37194 -0.25677,-0.75621 -0.29586,-1.1524 10e-4,-0.43656 0.004,-0.87315 -0.001,-1.30968 0,-0.38432 -0.008,-0.76921 0.0202,-1.15282 0.0343,-0.3712 0.0981,-0.73754 0.23958,-1.0849 0.0876,-0.40501 0.27495,-0.74116 0.55255,-1.04961 0.66182,-0.87426 2.17485,-1.6619 2.99043,-1.84721 0.39558,-0.05 0.7939,-0.0226 1.19161,-0.0391 0,0 -2.14449,1.55807 -2.14449,1.55807 z"
       inkscape:connector-curvature="0" />
    <path
       style="fill:#bf8a51;fill-opacity:1;fill-rule:evenodd;stroke:none;stroke-width:1px;stroke-linecap:butt;stroke-linejoin:miter;stroke-opacity:1;filter:url(#filter5565)"
       d="m 382.88187,293.03966 7.17248,13.32032 c 0,0 9.01683,2.25421 10.04147,2.25421 1.02464,0 13.11539,-1.02464 13.11539,-1.02464 l 3.27885,0.20492 -4.50842,4.91828 c 0,0 -7.58233,0.20492 -8.40205,0.61478 -0.81971,0.40986 -8.40204,-0.81971 -9.22176,-1.22957 -0.81971,-0.40985 -4.50841,-2.04928 -4.50841,-2.04928 l -2.86899,-3.6887 z"
       id="path5555"
       inkscape:connector-curvature="0" />
    <path
       style="opacity:1;fill:#7e5900;fill-opacity:1;stroke:#422700;stroke-width:0.26132321;stroke-miterlimit:4;stroke-dasharray:none;stroke-opacity:1"
       id="path5815"
       sodipodi:type="arc"
       sodipodi:cx="401.79453"
       sodipodi:cy="-642.36218"
       sodipodi:rx="30.574818"
       sodipodi:ry="10.191606"
       sodipodi:start="0"
       sodipodi:end="0.098168313"
       sodipodi:open="true"
       d="m 432.36934,-642.36218 a 30.574818,10.191606 0 0 1 -0.1472,0.99888"
       transform="scale(1,-1)" />
    <path
       style="opacity:1;fill:#7e5900;fill-opacity:1;stroke:#422700;stroke-width:1.87644958;stroke-miterlimit:4;stroke-dasharray:none;stroke-opacity:1"
       id="path5819"
       sodipodi:type="arc"
       sodipodi:cx="275.09723"
       sodipodi:cy="646.88794"
       sodipodi:rx="94.366631"
       sodipodi:ry="41.75526"
       sodipodi:start="0"
       sodipodi:end="6.2666695"
       d="m 369.46386,646.88794 a 94.366631,41.75526 0 0 1 -93.977,41.7549 94.366631,41.75526 0 0 1 -94.75304,-41.41009 94.366631,41.75526 0 0 1 93.19453,-42.09687 94.366631,41.75526 0 0 1 95.52264,41.06247"
       sodipodi:open="true"
       inkscape:export-xdpi="90"
       inkscape:export-ydpi="90" />
    <path
       transform="matrix(1.9653856,0,0,2.0329239,-250.62558,-604.47352)"
       style="opacity:1;fill:#62470a;fill-opacity:1;stroke:none;stroke-width:2;stroke-miterlimit:4;stroke-dasharray:none;stroke-opacity:1;filter:url(#filter6407)"
       id="path6413"
       sodipodi:type="arc"
       sodipodi:cx="267"
       sodipodi:cy="611.36218"
       sodipodi:rx="41"
       sodipodi:ry="12"
       sodipodi:start="0"
       sodipodi:end="6.2666745"
       sodipodi:open="true"
       d="m 308,611.36218 a 41,12 0 0 1 -40.83076,11.9999 41,12 0 0 1 -41.16784,-11.90083 41,12 0 0 1 40.49091,-12.09815 41,12 0 0 1 41.5021,11.80096"
       inkscape:export-xdpi="90"
       inkscape:export-ydpi="90" />
    <path
       sodipodi:open="true"
       d="m 352.32198,622.36322 a 75.268661,33.304806 0 0 1 -74.95789,33.30452 75.268661,33.304806 0 0 1 -75.57687,-33.0295 75.268661,33.304806 0 0 1 74.33378,-33.57727 75.268661,33.304806 0 0 1 76.19071,32.75222"
       sodipodi:end="6.2666695"
       sodipodi:start="0"
       sodipodi:ry="33.304806"
       sodipodi:rx="75.268661"
       sodipodi:cy="622.36322"
       sodipodi:cx="277.05331"
       sodipodi:type="arc"
       id="path5821"
       style="opacity:1;fill:#7e5900;fill-opacity:1;stroke:#422700;stroke-width:1.87644958;stroke-miterlimit:4;stroke-dasharray:none;stroke-opacity:1"
       inkscape:export-xdpi="90"
       inkscape:export-ydpi="90" />
    <path
       d="m 308,611.36218 a 41,12 0 0 1 -40.83076,11.9999 41,12 0 0 1 -41.16784,-11.90083 41,12 0 0 1 40.49091,-12.09815 41,12 0 0 1 41.5021,11.80096"
       sodipodi:open="true"
       sodipodi:end="6.2666745"
       sodipodi:start="0"
       sodipodi:ry="12"
       sodipodi:rx="41"
       sodipodi:cy="611.36218"
       sodipodi:cx="267"
       sodipodi:type="arc"
       id="path6411"
       style="opacity:1;fill:#62470a;fill-opacity:1;stroke:none;stroke-width:2;stroke-miterlimit:4;stroke-dasharray:none;stroke-opacity:1;filter:url(#filter6407)"
       transform="matrix(1.2424656,0,0,1.6216319,-59.804411,-379.55177)"
       inkscape:export-xdpi="90"
       inkscape:export-ydpi="90" />
    <path
       style="opacity:1;fill:#7e5900;fill-opacity:1;stroke:#422700;stroke-width:1.87644958;stroke-miterlimit:4;stroke-dasharray:none;stroke-opacity:1"
       id="path5823"
       sodipodi:type="arc"
       sodipodi:cx="275.73425"
       sodipodi:cy="603.07831"
       sodipodi:rx="51.150192"
       sodipodi:ry="22.632887"
       sodipodi:start="0"
       sodipodi:end="6.2666695"
       d="m 326.88445,603.07831 a 51.150192,22.632887 0 0 1 -50.939,22.63269 51.150192,22.632887 0 0 1 -51.35965,-22.44579 51.150192,22.632887 0 0 1 50.51488,-22.81805 51.150192,22.632887 0 0 1 51.77679,22.25736"
       sodipodi:open="true"
       inkscape:export-xdpi="90"
       inkscape:export-ydpi="90" />
    <path
       style="opacity:1;fill:#62470a;fill-opacity:1;stroke:none;stroke-width:2;stroke-miterlimit:4;stroke-dasharray:none;stroke-opacity:1;filter:url(#filter6407)"
       id="path6401"
       sodipodi:type="arc"
       sodipodi:cx="290"
       sodipodi:cy="596.36218"
       sodipodi:rx="41"
       sodipodi:ry="12"
       sodipodi:start="0"
       sodipodi:end="6.2666745"
       sodipodi:open="true"
       d="m 331,596.36218 a 41,12 0 0 1 -40.83076,11.9999 41,12 0 0 1 -41.16784,-11.90083 41,12 0 0 1 40.49091,-12.09815 41,12 0 0 1 41.5021,11.80096"
       transform="matrix(0.87937958,0,0,1.0010077,21.750405,-0.62610872)"
       inkscape:export-xdpi="90"
       inkscape:export-ydpi="90" />
    <path
       style="fill:#7e5900;fill-opacity:1;fill-rule:evenodd;stroke:#422700;stroke-width:1.68941951;stroke-linecap:butt;stroke-linejoin:miter;stroke-miterlimit:4;stroke-dasharray:none;stroke-opacity:1"
       d="m 258.92716,571.97906 c 0,0 -29.294,11.71605 -11.87594,24.33335 17.41805,12.61728 44.33686,6.30864 44.33686,6.30864 0,0 35.62784,-4.50618 11.87595,-20.72841 -23.7519,-16.22223 -7.9173,-22.53087 -7.9173,-22.53087 0,0 -9.50076,-9.01235 -18.20978,-2.7037 -8.70904,6.30864 -18.20979,15.32099 -18.20979,15.32099 z"
       id="path5825"
       inkscape:connector-curvature="0"
       inkscape:export-xdpi="90"
       inkscape:export-ydpi="90" />
    <path
       style="opacity:1;fill:#ddbc6d;fill-opacity:1;stroke:none;stroke-width:2;stroke-miterlimit:4;stroke-dasharray:none;stroke-opacity:1;filter:url(#filter6367)"
       id="path5829"
       d="m 336.7416,594.05284 c 1.2063,1.94304 2.00103,4.08094 2.34036,6.33756 0.25281,2.58064 -1.34848,4.27615 -3.30133,5.67347 -6.39253,1.61294 -11.51083,7.43355 -17.74723,9.93959 0,0 11.54166,-9.16439 11.54166,-9.16439 l 0,0 c 4.89309,-2.51761 13.77097,-7.67948 -7.47814,4.51844 1.69924,-0.8755 3.81702,-2.01755 3.90684,-4.15677 -0.028,-2.01303 -0.84369,-3.95918 -2.02766,-5.57223 0,0 12.7655,-7.57567 12.7655,-7.57567 z"
       inkscape:connector-curvature="0"
       transform="matrix(0.87937958,0,0,1.0010077,21.750405,-0.62610872)"
       inkscape:export-xdpi="90"
       inkscape:export-ydpi="90" />
    <path
       style="opacity:1;fill:#ddbc6d;fill-opacity:1;stroke:none;stroke-width:2;stroke-miterlimit:4;stroke-dasharray:none;stroke-opacity:1;filter:url(#filter6371)"
       id="path5831"
       d="m 352.60267,603.99962 c 2.51249,0.13202 5.03541,0.67314 7.39482,1.54682 2.64422,0.95103 4.78269,2.88689 7.00089,4.55164 2.03949,1.47884 2.87503,3.61369 3.58447,5.92624 0.62719,2.36502 0.92114,4.82149 0.7138,7.26125 -0.27696,2.35041 -1.72416,3.97484 -3.39729,5.50338 -7.9365,5.21385 -27.55439,16.03923 -2.99615,1.993 0.34319,-0.1963 -0.66812,0.42331 -1.01024,0.62148 -13.02327,7.54369 -9.1207,5.41467 -14.79642,8.49234 -2.1518,0.9447 -4.41077,1.70671 -6.69406,2.27469 -1.40008,0.25984 -0.70051,0.14927 -2.09855,0.33279 0,0 11.77568,-8.85133 11.77568,-8.85133 l 0,0 c 1.32894,-0.26342 0.66495,-0.11325 1.99171,-0.45167 2.20265,-0.67728 4.42511,-1.36496 6.44234,-2.50176 4.54874,-2.48085 6.36627,-3.48617 -10.30399,6.0472 -0.34735,0.19864 0.63907,-0.4848 0.98431,-0.68708 4.51448,-2.64516 8.97,-5.39948 13.59134,-7.85319 3.57909,-1.90032 -16.38764,10.05249 -10.5374,6.06244 1.633,-1.13476 3.24468,-2.48737 3.83753,-4.45335 0.37301,-2.26541 0.20938,-4.5089 -0.39643,-6.73349 -0.60927,-2.0223 -1.29325,-3.87707 -3.07316,-5.17076 -2.08635,-1.63873 -4.2015,-3.31845 -6.76693,-4.138 -2.34342,-0.73782 -4.78911,-1.18643 -7.25544,-1.04747 0,0 12.00917,-8.72517 12.00917,-8.72517 z"
       inkscape:connector-curvature="0"
       transform="matrix(0.87937958,0,0,1.0010077,21.750405,-0.62610872)"
       inkscape:export-xdpi="90"
       inkscape:export-ydpi="90" />
    <path
       style="opacity:1;fill:#ddbc6d;fill-opacity:1;stroke:none;stroke-width:2;stroke-miterlimit:4;stroke-dasharray:none;stroke-opacity:1;filter:url(#filter6375)"
       id="path5833"
       d="m 385.71414,634.34453 c 0.88931,3.10442 1.23036,6.32659 1.51918,9.53184 0.25573,2.72987 0.50413,5.41753 -0.38306,8.04823 -2.87521,6.02614 -11.23969,8.46508 -16.13386,11.29504 21.12514,-13.1598 13.55882,-8.22962 9.17238,-4.73772 -13.54742,7.83101 -8.33717,6.47106 -14.09703,7.8892 0,0 11.65399,-9.11954 11.65399,-9.11954 l 0,0 c 4.78232,-2.48797 0.8881,-0.47577 -11.33992,6.65819 5.55541,-3.37275 7.24064,-9.63718 16.14418,-9.95204 -23.60082,13.79805 -13.68506,8.684 -9.91323,5.58337 0.61906,-0.50891 0.71447,-0.81244 1.12512,-1.50149 1.39063,-2.28104 0.98157,-4.884 0.85476,-7.44955 -0.21899,-3.03796 -0.46535,-6.14206 -1.55232,-9.01401 0,0 12.94981,-7.23152 12.94981,-7.23152 z"
       inkscape:connector-curvature="0"
       transform="matrix(0.87937958,0,0,1.0010077,21.750405,-0.62610872)"
       inkscape:export-xdpi="90"
       inkscape:export-ydpi="90" />
    <path
       style="opacity:1;fill:#ddbc6d;fill-opacity:1;stroke:none;stroke-width:2;stroke-miterlimit:4;stroke-dasharray:none;stroke-opacity:1;filter:url(#filter6397)"
       id="path6379"
       d="m 303.49183,556.84727 c -0.96119,2.11683 -1.38804,4.40682 -1.68135,6.697 -0.30954,1.85544 -0.79544,3.66585 -1.03223,5.53472 -0.23458,1.62519 -0.13774,3.24226 0.40631,4.79395 0.46464,1.56821 1.89322,2.32013 3.02088,3.36478 1.26452,1.09767 2.80236,1.7736 4.19064,2.67291 1.31013,0.72968 2.7389,1.24959 4.01827,2.02928 1.31615,0.69077 2.7302,1.21585 3.99852,1.99175 1.41952,0.52687 2.61985,1.39112 3.87071,2.21663 0.84584,0.39604 0.42574,0.15509 1.24983,0.74079 0,0 -12.4716,7.99085 -12.4716,7.99085 l 0,0 c -0.7919,-0.48054 -0.37307,-0.22938 -1.25739,-0.75195 -1.20136,-0.82923 -2.48773,-1.47194 -3.79784,-2.11065 -1.33666,-0.65603 -2.67562,-1.30675 -3.99781,-1.99088 -1.36166,-0.66925 -2.72882,-1.33324 -4.04445,-2.08949 -1.50313,-0.86417 -2.98322,-1.78023 -4.29838,-2.91911 -1.35042,-1.16234 -2.87238,-2.16717 -3.42359,-3.96742 -0.654,-1.7304 -0.89794,-3.56942 -0.6847,-5.41237 0.169,-1.89665 0.49503,-3.76023 1.08189,-5.57697 0.25773,-2.36712 0.66361,-4.7142 1.39016,-6.98778 0,0 13.46213,-6.22604 13.46213,-6.22604 z"
       inkscape:connector-curvature="0"
       transform="matrix(0.87937958,0,0,1.0010077,21.750405,-0.62610872)"
       inkscape:export-xdpi="90"
       inkscape:export-ydpi="90" />
    <path
       style="fill:#ffffff;fill-opacity:1;fill-rule:evenodd;stroke:#4e3a00;stroke-width:4.30000019;stroke-linecap:butt;stroke-linejoin:miter;stroke-miterlimit:4;stroke-dasharray:none;stroke-opacity:1"
       d="m 233.49397,635.33965 c 36.33792,38.94299 83.26723,2.13755 83.26723,2.13755 z"
       id="path6415"
       inkscape:connector-curvature="0"
       inkscape:export-xdpi="90"
       inkscape:export-ydpi="90" />
    <g
       id="g6813"
       transform="translate(-11,2.5)"
       inkscape:export-xdpi="90"
       inkscape:export-ydpi="90">
      <g
         id="g6611"
         transform="translate(3,-33.5)">
        <path
           inkscape:connector-curvature="0"
           id="path6613"
           d="m 249.67369,624.86353 c -13.91758,-0.11201 -27.0221,5.83436 -26.36013,7.37895 l -9.9778,-0.7127 1.4254,11.40319 7.127,0.7127 c 4.81866,14.30631 15.97811,20.40504 26.73179,21.32112 13.16246,1.12129 25.71723,-6.05405 25.29527,-22.03382 l 13.54129,0 c 2.33655,11.29171 13.54135,20.16389 25.31196,21.25431 9.52719,0.88259 19.42531,-2.47303 25.2897,-20.54161 l 9.97779,-2.1381 0.7127,-9.26509 -10.69049,0 c 1.72822,-0.85041 -24.85423,-15.05264 -45.96912,-0.7127 0,0 -11.34188,8.64831 -21.73733,0 -5.87428,-4.88701 -13.38787,-6.60757 -20.67803,-6.66625 z m 65.01156,5.59163 c 8.87753,-0.0591 17.54714,2.10688 17.69777,5.13923 -0.0187,8.59255 -0.74227,16.54396 -5.87559,20.1268 -11.11157,7.75539 -27.44909,1.094 -31.23907,-8.42433 -0.1977,-4.25348 -0.47183,-7.63491 1.13865,-10.55825 2.45033,-4.44783 10.44511,-6.2313 18.27824,-6.28345 z m -65.86763,0.799 c 6.51617,0.0552 13.14219,1.22773 17.5544,4.09663 2.88311,1.87466 2.06619,8.219 1.86248,12.6017 -2.36599,16.56717 -44.23802,15.02132 -40.30928,-10.33693 -0.52118,-3.44125 10.03211,-6.45343 20.8924,-6.3614 z"
           style="fill:#533800;fill-opacity:1;fill-rule:evenodd;stroke:#7a0000;stroke-width:0.71269947px;stroke-linecap:butt;stroke-linejoin:miter;stroke-opacity:1;filter:url(#filter6689)" />
      </g>
      <path
         inkscape:connector-curvature="0"
         id="path6417"
         d="m 252.17369,592.36353 c -13.91758,-0.11201 -27.0221,5.83436 -26.36013,7.37895 l -9.9778,-0.7127 1.4254,11.40319 7.127,0.7127 c 4.81866,14.30631 15.97811,20.40504 26.73179,21.32112 13.16246,1.12129 25.71723,-6.05405 25.29527,-22.03382 l 13.54129,0 c 2.33655,11.29171 13.54135,20.16389 25.31196,21.25431 9.52719,0.88259 19.42531,-2.47303 25.2897,-20.54161 l 9.97779,-2.1381 0.7127,-9.26509 -10.69049,0 c 1.72822,-0.85041 -24.85423,-15.05264 -45.96912,-0.7127 0,0 -11.34188,8.64831 -21.73733,0 -5.87428,-4.88701 -13.38787,-6.60757 -20.67803,-6.66625 z m 65.01156,5.59163 c 8.87753,-0.0591 17.54714,2.10688 17.69777,5.13923 -0.0187,8.59255 -0.74227,16.54396 -5.87559,20.1268 -11.11157,7.75539 -27.44909,1.094 -31.23907,-8.42433 -0.1977,-4.25348 -0.47183,-7.63491 1.13865,-10.55825 2.45033,-4.44783 10.44511,-6.2313 18.27824,-6.28345 z m -65.86763,0.799 c 6.51617,0.0552 13.14219,1.22773 17.5544,4.09663 2.88311,1.87466 2.06619,8.219 1.86248,12.6017 -2.36599,16.56717 -44.23802,15.02132 -40.30928,-10.33693 -0.52118,-3.44125 10.03211,-6.45343 20.8924,-6.3614 z"
         style="fill:#ff0200;fill-opacity:1;fill-rule:evenodd;stroke:#7a0000;stroke-width:0.71269947px;stroke-linecap:butt;stroke-linejoin:miter;stroke-opacity:1" />
      <path
         transform="matrix(1.0018406,0,0,0.95358353,80.305532,85.279106)"
         sodipodi:nodetypes="ccccccccccsscscsscsccccccccccc"
         inkscape:connector-curvature="0"
         id="path6429"
         d="m 146.01755,554.55904 5.46803,5.54194 7.62625,7.15851 12.22968,3.3455 13.96948,-2.22834 6.6685,-9.3982 1.76777,-8.48528 4.5962,-1.41421 10.42982,0.35355 c 0,0 4.41942,1.23744 4.59619,2.12132 0.17678,0.88388 1.45508,7.19734 2.12133,7.77817 l 6.89429,6.01041 c 0.85321,0.74383 5.3033,2.2981 7.77817,3.0052 6.05219,2.8887 13.34236,2.50166 18.70512,-1.98424 3.46209,-2.89601 8.51849,-11.80434 8.51849,-11.80434 0,0 -0.1348,7.12586 -4.65364,11.44661 -4.98009,4.76179 -14.41249,6.76139 -14.96857,6.76139 -1.06066,0 -9.8995,-1.59099 -9.8995,-1.59099 0,0 -7.07106,-3.88908 -7.95495,-4.41941 -0.88388,-0.53033 -7.42462,-6.71752 -7.42462,-6.71752 l -1.76777,-6.01041 -0.35355,-2.47487 -15.73312,0 0,6.71751 -3.00521,5.48008 -5.69282,6.73389 -9.15643,2.63527 -13.5306,-0.78611 c -1.85565,-1.85745 -10.69347,-5.39558 -10.69347,-5.39558 z"
         style="fill:#6c0100;fill-opacity:1;fill-rule:evenodd;stroke:none;stroke-width:1px;stroke-linecap:butt;stroke-linejoin:miter;stroke-opacity:1;filter:url(#filter6439)" />
      <path
         sodipodi:nodetypes="ccccc"
         inkscape:connector-curvature="0"
         id="path6443"
         d="m 237.83126,596.02781 10.6066,-2.2981 12.02082,2.47487 -11.84404,-1.06065 z"
         style="fill:#ffa4a4;fill-opacity:1;fill-rule:evenodd;stroke:none;stroke-width:1px;stroke-linecap:butt;stroke-linejoin:miter;stroke-opacity:1;filter:url(#filter6597)" />
      <path
         inkscape:connector-curvature="0"
         id="path6445"
         d="m 306.06706,595.67425 8.13173,-1.59099 18.91511,2.65165 -18.73833,-1.59099 -8.83884,1.23744 z"
         style="fill:#ffa4a4;fill-opacity:1;fill-rule:evenodd;stroke:none;stroke-width:1px;stroke-linecap:butt;stroke-linejoin:miter;stroke-opacity:1;filter:url(#filter6593)" />
    </g>
    <path
       inkscape:connector-curvature="0"
       id="path6731"
       d="m 460.29158,599.75799 8.92857,6.07143 -0.71428,3.21428 -2.5,3.21429 -2.14286,2.14286 9.28571,-5 0.35715,-2.85715 -1.78572,-2.85714 -6.42857,-2.5 z"
       style="fill:#ffffff;fill-opacity:1;fill-rule:evenodd;stroke:none;stroke-width:1px;stroke-linecap:butt;stroke-linejoin:miter;stroke-opacity:1;filter:url(#filter4843)" />
    <g
       id="g6765"
       transform="translate(-262.01472,101.7132)"
       inkscape:export-xdpi="90"
       inkscape:export-ydpi="90">
      <path
         style="fill:#ffd8ac;fill-opacity:1;fill-rule:evenodd;stroke:#976f35;stroke-width:0.82984769px;stroke-linecap:butt;stroke-linejoin:miter;stroke-opacity:1"
         d="m 461.34764,513.92478 1.1855,-14.81872 0,-4.44561 -2.07462,-6.22386 -2.96374,-4.74198 -2.37099,-1.1855 -4.14924,0 -2.66737,2.66737 c 0,0 -0.29638,2.66737 -0.29638,3.85287 0,1.18549 -0.29637,7.11298 -0.29637,7.11298 0,0 0,2.37099 0.29637,3.55648 0.29638,1.1855 0.59275,2.66738 0.59275,4.44561 0,1.77825 0.59275,2.66738 -0.29637,4.14924 -0.88913,1.48188 -1.48187,3.26012 -2.371,4.44562 -0.88912,1.1855 -2.37099,2.96374 -2.37099,2.96374 l 12.74409,1.1855 z"
         id="path6733"
         inkscape:connector-curvature="0" />
      <path
         style="fill:#bf8a51;fill-opacity:1;fill-rule:evenodd;stroke:none;stroke-width:1px;stroke-linecap:butt;stroke-linejoin:miter;stroke-opacity:1;filter:url(#filter5711)"
         d="m 451.66974,512.65262 6.55769,-5.53306 0.81972,-6.14784 c 1.76219,-11.96176 1.84435,-4.78332 1.84435,4.71334 l -0.61479,6.14784 c 0,0 0,2.45914 -0.81971,2.45914 -0.81971,0 -8.60697,-1.22957 -8.60697,-1.22957 z"
         id="path6739"
         inkscape:connector-curvature="0"
         sodipodi:nodetypes="cccccscc" />
      <path
         style="fill:#ffd8ac;fill-opacity:1;fill-rule:evenodd;stroke:#976f35;stroke-width:0.82984769px;stroke-linecap:butt;stroke-linejoin:miter;stroke-opacity:1"
         d="m 459.27302,570.23587 c 7.17389,-3.29481 7.60146,-6.96085 5.92748,-13.33684 4.67513,-6.04401 3.53022,-7.62676 0,-13.63321 4.3342,-5.21375 2.85035,-7.89995 0.29638,-13.04047 l 0,-3.55649 c 1.12604,-7.13091 -3.96289,-11.24923 -8.59486,-14.52233 l -10.37309,2.37099 c -4.7823,0.2965 -8.49773,1.42211 -12.44772,3.85287 -5.66866,7.31815 -6.29491,20.98854 -3.85286,29.63742 0.91339,2.77465 0.71282,6.18811 1.48187,8.59485 1.3992,3.31159 2.83693,6.56059 5.33474,9.1876 6.65629,6.08091 15.14339,5.48249 22.22806,4.44561 z"
         id="path6741"
         inkscape:connector-curvature="0"
         sodipodi:nodetypes="cccccccccccc" />
      <path
         inkscape:connector-curvature="0"
         id="path6743"
         d="m 742.53652,304.00609 -21.0882,-3.0126 0,3.0126 20.22746,3.01261 z"
         style="fill:#bf8a51;fill-opacity:1;fill-rule:evenodd;stroke:none;stroke-width:1.20504045px;stroke-linecap:butt;stroke-linejoin:miter;stroke-opacity:1;filter:url(#filter5199)"
         transform="matrix(0.82984769,0,0,0.82984769,-151.25778,276.05067)" />
      <path
         style="fill:#bf8a51;fill-opacity:1;fill-rule:evenodd;stroke:none;stroke-width:1.20504045px;stroke-linecap:butt;stroke-linejoin:miter;stroke-opacity:1;filter:url(#filter5199)"
         d="m 743.39726,322.0817 -21.0882,-3.0126 0,3.0126 20.22746,3.01261 z"
         id="path6745"
         inkscape:connector-curvature="0"
         transform="matrix(0.82984769,0,0,0.82984769,-151.25778,276.05067)" />
      <path
         inkscape:connector-curvature="0"
         id="path6747"
         d="m 742.10615,338.86619 -21.0882,-3.0126 0,3.0126 20.22746,3.01261 z"
         style="fill:#bf8a51;fill-opacity:1;fill-rule:evenodd;stroke:none;stroke-width:1.20504045px;stroke-linecap:butt;stroke-linejoin:miter;stroke-opacity:1;filter:url(#filter5199)"
         transform="matrix(0.82984769,0,0,0.82984769,-151.25778,276.05067)" />
      <path
         style="fill:none;fill-rule:evenodd;stroke:#976f35;stroke-width:0.82984769px;stroke-linecap:butt;stroke-linejoin:miter;stroke-opacity:1"
         d="m 466.27193,529.98975 -8.59484,-2.07462 -9.1876,0.29637"
         id="path6749"
         inkscape:connector-curvature="0" />
      <path
         style="fill:none;fill-rule:evenodd;stroke:#976f35;stroke-width:0.82984769px;stroke-linecap:butt;stroke-linejoin:miter;stroke-opacity:1"
         d="M 466.21117,543.50143 448.13235,542.6123"
         id="path6751"
         inkscape:connector-curvature="0" />
      <path
         style="fill:none;fill-rule:evenodd;stroke:#976f35;stroke-width:0.82984769px;stroke-linecap:butt;stroke-linejoin:miter;stroke-opacity:1"
         d="m 464.90413,557.78815 -7.40935,0 -7.11298,0 -3.55649,-1.18549"
         id="path6753"
         inkscape:connector-curvature="0" />
      <path
         style="opacity:0.86199999;fill:#bf8a51;fill-opacity:1;stroke:none;stroke-width:1;stroke-miterlimit:4;stroke-dasharray:none;stroke-opacity:1;filter:url(#filter5539)"
         id="path6755"
         d="m 440.17893,518.97979 c -0.31351,0.42288 -0.53961,0.93605 -0.77385,1.43641 -0.2388,0.45968 -0.40852,0.96363 -0.57316,1.47427 -0.15414,0.48628 -0.19247,1.01226 -0.21627,1.53334 -0.0351,0.41454 -0.005,0.79313 0.12505,1.16979 0.1461,0.30706 0.3576,0.51404 0.56305,0.74062 0.22033,0.20438 0.47532,0.3284 0.70277,0.51423 0.23718,0.19706 0.47978,0.40029 0.70126,0.62983 0,0 -2.23017,1.87708 -2.23017,1.87708 l 0,0 c -0.22337,-0.20731 -0.45,-0.41268 -0.68731,-0.59039 -0.2495,-0.16908 -0.5008,-0.3406 -0.72465,-0.56616 -0.23839,-0.25347 -0.46235,-0.53014 -0.62614,-0.87681 -0.14835,-0.42741 -0.21318,-0.85472 -0.17206,-1.32883 0.0192,-0.55371 0.0531,-1.10995 0.17772,-1.64236 0.164,-0.52804 0.32239,-1.05448 0.56184,-1.533 0.12507,-0.2524 0.23143,-0.5167 0.3522,-0.77201 0.28854,-0.60999 -0.0224,0.0828 0.27343,-0.48687 0.0383,-0.0736 0.0671,-0.15518 0.1007,-0.23279 0,0 2.44559,-1.34635 2.44559,-1.34635 z"
         inkscape:connector-curvature="0" />
      <path
         style="opacity:0.86199999;fill:#bf8a51;fill-opacity:1;stroke:none;stroke-width:1;stroke-miterlimit:4;stroke-dasharray:none;stroke-opacity:1;filter:url(#filter5543)"
         id="path6757"
         d="m 439.85807,531.25954 c -0.85161,0.50845 -2.26489,1.48124 1.45615,-1.12341 0.0884,-0.0619 -0.16573,0.14717 -0.24409,0.22828 -0.0766,0.0794 -0.14688,0.16831 -0.22032,0.25246 -0.41167,0.51724 -0.78128,1.07617 -1.07945,1.70839 -0.23428,0.50881 -0.38856,1.06006 -0.41228,1.65077 -0.005,0.49386 0.13479,0.93894 0.31626,1.36374 0.13221,0.40099 0.36529,0.70929 0.58127,1.03473 0.1761,0.25087 0.37776,0.45034 0.6015,0.6262 0.19673,0.20808 0.36839,0.43786 0.61422,0.54336 0.15634,0.13214 0.33613,0.19461 0.50398,0.29576 0,0 -2.19669,1.87486 -2.19669,1.87486 l 0,0 c -0.17257,-0.0878 -0.34224,-0.18171 -0.50701,-0.29177 -0.23857,-0.15577 -0.4285,-0.38585 -0.64071,-0.59214 -0.23349,-0.20863 -0.45391,-0.42925 -0.63642,-0.71248 -0.22586,-0.34263 -0.45661,-0.68404 -0.60212,-1.09746 -0.20322,-0.47117 -0.35289,-0.97808 -0.37018,-1.52209 -0.0144,-0.64638 0.12564,-1.25306 0.36985,-1.81913 0.011,-0.0245 0.28814,-0.64467 0.29801,-0.66358 0.21527,-0.41227 0.51111,-0.74708 0.7556,-1.1287 0.95309,-1.27296 2.25169,-2.00382 3.49442,-2.72665 0,0 -2.08199,2.09886 -2.08199,2.09886 z"
         inkscape:connector-curvature="0" />
      <path
         style="opacity:0.86199999;fill:#bf8a51;fill-opacity:1;stroke:none;stroke-width:1;stroke-miterlimit:4;stroke-dasharray:none;stroke-opacity:1;filter:url(#filter5547)"
         id="path6759"
         d="m 440.39379,544.4012 c -0.42484,0.14456 -0.80505,0.41701 -1.20355,0.63281 -0.0663,0.0415 -0.13271,0.0832 -0.19906,0.12469 0.68933,-0.44453 1.37516,-0.89607 2.068,-1.33362 0.0655,-0.0414 -0.12464,0.0945 -0.18516,0.14455 -0.18256,0.15109 -0.34921,0.32283 -0.51608,0.49489 -0.3389,0.35359 -0.61723,0.75518 -0.82004,1.22232 -0.19189,0.55293 -0.20732,1.15463 -0.22237,1.741 -0.007,0.44624 -0.001,0.89256 0.002,1.33881 -0.0182,0.40425 0.0781,0.78783 0.20952,1.15897 0.16155,0.32755 0.36443,0.6196 0.61011,0.87107 0.19973,0.2246 0.42985,0.42022 0.6609,0.60459 0.20056,0.23517 0.46967,0.34973 0.72696,0.48323 0,0 -2.20507,1.64265 -2.20507,1.64265 l 0,0 c -0.26617,-0.15102 -0.53696,-0.289 -0.75095,-0.53138 -0.23423,-0.20107 -0.48109,-0.3895 -0.67752,-0.63894 -0.25804,-0.29376 -0.48738,-0.61373 -0.65789,-0.98215 -0.14994,-0.39873 -0.27104,-0.8204 -0.25964,-1.25866 -10e-4,-0.45212 -0.004,-0.90433 0.007,-1.35634 0.0193,-0.61713 0.0458,-1.24023 0.17576,-1.84237 0.18053,-0.5035 0.42974,-0.94844 0.78112,-1.32465 0.91133,-1.07869 2.12358,-1.73719 3.2979,-2.40331 0.40507,-0.23262 0.81089,-0.46436 1.24016,-0.63582 0,0 -2.08198,1.84766 -2.08198,1.84766 z"
         inkscape:connector-curvature="0" />
      <path
         style="opacity:0.86199999;fill:#bf8a51;fill-opacity:1;stroke:none;stroke-width:1;stroke-miterlimit:4;stroke-dasharray:none;stroke-opacity:1;filter:url(#filter5551)"
         id="path6761"
         d="m 440.71968,556.9656 c -0.3897,-0.0247 -0.76874,-0.0161 -1.15041,0.0626 -0.85779,0.436 -0.42797,0.22002 2.01449,-1.14245 0.0389,-0.0217 -0.0749,0.0481 -0.11122,0.0739 -0.13124,0.0932 -0.2476,0.19953 -0.36319,0.31108 -0.26466,0.2794 -0.48017,0.58236 -0.60901,0.94534 -0.11577,0.34091 -0.20568,0.68578 -0.25157,1.04285 -0.0363,0.37585 -0.0392,0.754 -0.0404,1.13129 -0.005,0.43603 -9e-5,0.8721 0.003,1.30814 0.0168,0.36984 0.13402,0.72432 0.25559,1.07102 0.11048,0.3579 0.27893,0.68239 0.48602,0.99157 0.19426,0.29036 0.38113,0.58241 0.62754,0.83209 0.12528,0.14052 0.25369,0.2801 0.39508,0.40468 0,0 -2.24915,1.38892 -2.24915,1.38892 l 0,0 c -0.13826,-0.13561 -0.27261,-0.27594 -0.39811,-0.42347 -0.243,-0.27118 -0.44587,-0.56981 -0.64692,-0.87255 -0.21373,-0.32857 -0.39489,-0.67172 -0.51397,-1.04728 -0.13809,-0.37194 -0.25677,-0.75621 -0.29586,-1.1524 10e-4,-0.43656 0.004,-0.87315 -0.001,-1.30968 0,-0.38432 -0.008,-0.76921 0.0202,-1.15282 0.0343,-0.3712 0.0981,-0.73754 0.23958,-1.0849 0.0876,-0.40501 0.27495,-0.74116 0.55255,-1.04961 0.66182,-0.87426 2.17485,-1.6619 2.99043,-1.84721 0.39558,-0.05 0.7939,-0.0226 1.19161,-0.0391 0,0 -2.14449,1.55807 -2.14449,1.55807 z"
         inkscape:connector-curvature="0" />
      <path
         style="fill:#bf8a51;fill-opacity:1;fill-rule:evenodd;stroke:none;stroke-width:1px;stroke-linecap:butt;stroke-linejoin:miter;stroke-opacity:1;filter:url(#filter5565)"
         d="m 431.38187,549.53966 7.17248,13.32032 c 0,0 9.01683,2.25421 10.04147,2.25421 1.02464,0 13.11539,-1.02464 13.11539,-1.02464 l 3.27885,0.20492 -4.50842,4.91828 c 0,0 -7.58233,0.20492 -8.40205,0.61478 -0.81971,0.40986 -8.40204,-0.81971 -9.22176,-1.22957 -0.81971,-0.40985 -4.50841,-2.04928 -4.50841,-2.04928 l -2.86899,-3.6887 z"
         id="path6763"
         inkscape:connector-curvature="0" />
    </g>
    <g
       transform="matrix(-1,0,0,1,806.59675,99.384776)"
       id="g6781"
       inkscape:export-xdpi="90"
       inkscape:export-ydpi="90">
      <path
         inkscape:connector-curvature="0"
         id="path6783"
         d="m 461.34764,513.92478 1.1855,-14.81872 0,-4.44561 -2.07462,-6.22386 -2.96374,-4.74198 -2.37099,-1.1855 -4.14924,0 -2.66737,2.66737 c 0,0 -0.29638,2.66737 -0.29638,3.85287 0,1.18549 -0.29637,7.11298 -0.29637,7.11298 0,0 0,2.37099 0.29637,3.55648 0.29638,1.1855 0.59275,2.66738 0.59275,4.44561 0,1.77825 0.59275,2.66738 -0.29637,4.14924 -0.88913,1.48188 -1.48187,3.26012 -2.371,4.44562 -0.88912,1.1855 -2.37099,2.96374 -2.37099,2.96374 l 12.74409,1.1855 z"
         style="fill:#ffd8ac;fill-opacity:1;fill-rule:evenodd;stroke:#976f35;stroke-width:0.82984769px;stroke-linecap:butt;stroke-linejoin:miter;stroke-opacity:1" />
      <path
         sodipodi:nodetypes="cccccscc"
         inkscape:connector-curvature="0"
         id="path6785"
         d="m 451.66974,512.65262 6.55769,-5.53306 0.81972,-6.14784 c 1.76219,-11.96176 1.84435,-4.78332 1.84435,4.71334 l -0.61479,6.14784 c 0,0 0,2.45914 -0.81971,2.45914 -0.81971,0 -8.60697,-1.22957 -8.60697,-1.22957 z"
         style="fill:#bf8a51;fill-opacity:1;fill-rule:evenodd;stroke:none;stroke-width:1px;stroke-linecap:butt;stroke-linejoin:miter;stroke-opacity:1;filter:url(#filter5711)" />
      <path
         sodipodi:nodetypes="cccccccccccc"
         inkscape:connector-curvature="0"
         id="path6787"
         d="m 459.27302,570.23587 c 7.17389,-3.29481 7.60146,-6.96085 5.92748,-13.33684 4.67513,-6.04401 3.53022,-7.62676 0,-13.63321 4.3342,-5.21375 2.85035,-7.89995 0.29638,-13.04047 l 0,-3.55649 c 1.12604,-7.13091 -3.96289,-11.24923 -8.59486,-14.52233 l -10.37309,2.37099 c -4.7823,0.2965 -8.49773,1.42211 -12.44772,3.85287 -5.66866,7.31815 -6.29491,20.98854 -3.85286,29.63742 0.91339,2.77465 0.71282,6.18811 1.48187,8.59485 1.3992,3.31159 2.83693,6.56059 5.33474,9.1876 6.65629,6.08091 15.14339,5.48249 22.22806,4.44561 z"
         style="fill:#ffd8ac;fill-opacity:1;fill-rule:evenodd;stroke:#976f35;stroke-width:0.82984769px;stroke-linecap:butt;stroke-linejoin:miter;stroke-opacity:1" />
      <path
         transform="matrix(0.82984769,0,0,0.82984769,-151.25778,276.05067)"
         style="fill:#bf8a51;fill-opacity:1;fill-rule:evenodd;stroke:none;stroke-width:1.20504045px;stroke-linecap:butt;stroke-linejoin:miter;stroke-opacity:1;filter:url(#filter5199)"
         d="m 742.53652,304.00609 -21.0882,-3.0126 0,3.0126 20.22746,3.01261 z"
         id="path6789"
         inkscape:connector-curvature="0" />
      <path
         transform="matrix(0.82984769,0,0,0.82984769,-151.25778,276.05067)"
         inkscape:connector-curvature="0"
         id="path6791"
         d="m 743.39726,322.0817 -21.0882,-3.0126 0,3.0126 20.22746,3.01261 z"
         style="fill:#bf8a51;fill-opacity:1;fill-rule:evenodd;stroke:none;stroke-width:1.20504045px;stroke-linecap:butt;stroke-linejoin:miter;stroke-opacity:1;filter:url(#filter5199)" />
      <path
         transform="matrix(0.82984769,0,0,0.82984769,-151.25778,276.05067)"
         style="fill:#bf8a51;fill-opacity:1;fill-rule:evenodd;stroke:none;stroke-width:1.20504045px;stroke-linecap:butt;stroke-linejoin:miter;stroke-opacity:1;filter:url(#filter5199)"
         d="m 742.10615,338.86619 -21.0882,-3.0126 0,3.0126 20.22746,3.01261 z"
         id="path6793"
         inkscape:connector-curvature="0" />
      <path
         inkscape:connector-curvature="0"
         id="path6795"
         d="m 466.27193,529.98975 -8.59484,-2.07462 -9.1876,0.29637"
         style="fill:none;fill-rule:evenodd;stroke:#976f35;stroke-width:0.82984769px;stroke-linecap:butt;stroke-linejoin:miter;stroke-opacity:1" />
      <path
         inkscape:connector-curvature="0"
         id="path6797"
         d="M 466.21117,543.50143 448.13235,542.6123"
         style="fill:none;fill-rule:evenodd;stroke:#976f35;stroke-width:0.82984769px;stroke-linecap:butt;stroke-linejoin:miter;stroke-opacity:1" />
      <path
         inkscape:connector-curvature="0"
         id="path6799"
         d="m 464.90413,557.78815 -7.40935,0 -7.11298,0 -3.55649,-1.18549"
         style="fill:none;fill-rule:evenodd;stroke:#976f35;stroke-width:0.82984769px;stroke-linecap:butt;stroke-linejoin:miter;stroke-opacity:1" />
      <path
         inkscape:connector-curvature="0"
         d="m 440.17893,518.97979 c -0.31351,0.42288 -0.53961,0.93605 -0.77385,1.43641 -0.2388,0.45968 -0.40852,0.96363 -0.57316,1.47427 -0.15414,0.48628 -0.19247,1.01226 -0.21627,1.53334 -0.0351,0.41454 -0.005,0.79313 0.12505,1.16979 0.1461,0.30706 0.3576,0.51404 0.56305,0.74062 0.22033,0.20438 0.47532,0.3284 0.70277,0.51423 0.23718,0.19706 0.47978,0.40029 0.70126,0.62983 0,0 -2.23017,1.87708 -2.23017,1.87708 l 0,0 c -0.22337,-0.20731 -0.45,-0.41268 -0.68731,-0.59039 -0.2495,-0.16908 -0.5008,-0.3406 -0.72465,-0.56616 -0.23839,-0.25347 -0.46235,-0.53014 -0.62614,-0.87681 -0.14835,-0.42741 -0.21318,-0.85472 -0.17206,-1.32883 0.0192,-0.55371 0.0531,-1.10995 0.17772,-1.64236 0.164,-0.52804 0.32239,-1.05448 0.56184,-1.533 0.12507,-0.2524 0.23143,-0.5167 0.3522,-0.77201 0.28854,-0.60999 -0.0224,0.0828 0.27343,-0.48687 0.0383,-0.0736 0.0671,-0.15518 0.1007,-0.23279 0,0 2.44559,-1.34635 2.44559,-1.34635 z"
         id="path6801"
         style="opacity:0.86199999;fill:#bf8a51;fill-opacity:1;stroke:none;stroke-width:1;stroke-miterlimit:4;stroke-dasharray:none;stroke-opacity:1;filter:url(#filter5539)" />
      <path
         inkscape:connector-curvature="0"
         d="m 439.85807,531.25954 c -0.85161,0.50845 -2.26489,1.48124 1.45615,-1.12341 0.0884,-0.0619 -0.16573,0.14717 -0.24409,0.22828 -0.0766,0.0794 -0.14688,0.16831 -0.22032,0.25246 -0.41167,0.51724 -0.78128,1.07617 -1.07945,1.70839 -0.23428,0.50881 -0.38856,1.06006 -0.41228,1.65077 -0.005,0.49386 0.13479,0.93894 0.31626,1.36374 0.13221,0.40099 0.36529,0.70929 0.58127,1.03473 0.1761,0.25087 0.37776,0.45034 0.6015,0.6262 0.19673,0.20808 0.36839,0.43786 0.61422,0.54336 0.15634,0.13214 0.33613,0.19461 0.50398,0.29576 0,0 -2.19669,1.87486 -2.19669,1.87486 l 0,0 c -0.17257,-0.0878 -0.34224,-0.18171 -0.50701,-0.29177 -0.23857,-0.15577 -0.4285,-0.38585 -0.64071,-0.59214 -0.23349,-0.20863 -0.45391,-0.42925 -0.63642,-0.71248 -0.22586,-0.34263 -0.45661,-0.68404 -0.60212,-1.09746 -0.20322,-0.47117 -0.35289,-0.97808 -0.37018,-1.52209 -0.0144,-0.64638 0.12564,-1.25306 0.36985,-1.81913 0.011,-0.0245 0.28814,-0.64467 0.29801,-0.66358 0.21527,-0.41227 0.51111,-0.74708 0.7556,-1.1287 0.95309,-1.27296 2.25169,-2.00382 3.49442,-2.72665 0,0 -2.08199,2.09886 -2.08199,2.09886 z"
         id="path6803"
         style="opacity:0.86199999;fill:#bf8a51;fill-opacity:1;stroke:none;stroke-width:1;stroke-miterlimit:4;stroke-dasharray:none;stroke-opacity:1;filter:url(#filter5543)" />
      <path
         inkscape:connector-curvature="0"
         d="m 440.39379,544.4012 c -0.42484,0.14456 -0.80505,0.41701 -1.20355,0.63281 -0.0663,0.0415 -0.13271,0.0832 -0.19906,0.12469 0.68933,-0.44453 1.37516,-0.89607 2.068,-1.33362 0.0655,-0.0414 -0.12464,0.0945 -0.18516,0.14455 -0.18256,0.15109 -0.34921,0.32283 -0.51608,0.49489 -0.3389,0.35359 -0.61723,0.75518 -0.82004,1.22232 -0.19189,0.55293 -0.20732,1.15463 -0.22237,1.741 -0.007,0.44624 -0.001,0.89256 0.002,1.33881 -0.0182,0.40425 0.0781,0.78783 0.20952,1.15897 0.16155,0.32755 0.36443,0.6196 0.61011,0.87107 0.19973,0.2246 0.42985,0.42022 0.6609,0.60459 0.20056,0.23517 0.46967,0.34973 0.72696,0.48323 0,0 -2.20507,1.64265 -2.20507,1.64265 l 0,0 c -0.26617,-0.15102 -0.53696,-0.289 -0.75095,-0.53138 -0.23423,-0.20107 -0.48109,-0.3895 -0.67752,-0.63894 -0.25804,-0.29376 -0.48738,-0.61373 -0.65789,-0.98215 -0.14994,-0.39873 -0.27104,-0.8204 -0.25964,-1.25866 -10e-4,-0.45212 -0.004,-0.90433 0.007,-1.35634 0.0193,-0.61713 0.0458,-1.24023 0.17576,-1.84237 0.18053,-0.5035 0.42974,-0.94844 0.78112,-1.32465 0.91133,-1.07869 2.12358,-1.73719 3.2979,-2.40331 0.40507,-0.23262 0.81089,-0.46436 1.24016,-0.63582 0,0 -2.08198,1.84766 -2.08198,1.84766 z"
         id="path6805"
         style="opacity:0.86199999;fill:#bf8a51;fill-opacity:1;stroke:none;stroke-width:1;stroke-miterlimit:4;stroke-dasharray:none;stroke-opacity:1;filter:url(#filter5547)" />
      <path
         inkscape:connector-curvature="0"
         d="m 440.71968,556.9656 c -0.3897,-0.0247 -0.76874,-0.0161 -1.15041,0.0626 -0.85779,0.436 -0.42797,0.22002 2.01449,-1.14245 0.0389,-0.0217 -0.0749,0.0481 -0.11122,0.0739 -0.13124,0.0932 -0.2476,0.19953 -0.36319,0.31108 -0.26466,0.2794 -0.48017,0.58236 -0.60901,0.94534 -0.11577,0.34091 -0.20568,0.68578 -0.25157,1.04285 -0.0363,0.37585 -0.0392,0.754 -0.0404,1.13129 -0.005,0.43603 -9e-5,0.8721 0.003,1.30814 0.0168,0.36984 0.13402,0.72432 0.25559,1.07102 0.11048,0.3579 0.27893,0.68239 0.48602,0.99157 0.19426,0.29036 0.38113,0.58241 0.62754,0.83209 0.12528,0.14052 0.25369,0.2801 0.39508,0.40468 0,0 -2.24915,1.38892 -2.24915,1.38892 l 0,0 c -0.13826,-0.13561 -0.27261,-0.27594 -0.39811,-0.42347 -0.243,-0.27118 -0.44587,-0.56981 -0.64692,-0.87255 -0.21373,-0.32857 -0.39489,-0.67172 -0.51397,-1.04728 -0.13809,-0.37194 -0.25677,-0.75621 -0.29586,-1.1524 10e-4,-0.43656 0.004,-0.87315 -0.001,-1.30968 0,-0.38432 -0.008,-0.76921 0.0202,-1.15282 0.0343,-0.3712 0.0981,-0.73754 0.23958,-1.0849 0.0876,-0.40501 0.27495,-0.74116 0.55255,-1.04961 0.66182,-0.87426 2.17485,-1.6619 2.99043,-1.84721 0.39558,-0.05 0.7939,-0.0226 1.19161,-0.0391 0,0 -2.14449,1.55807 -2.14449,1.55807 z"
         id="path6807"
         style="opacity:0.86199999;fill:#bf8a51;fill-opacity:1;stroke:none;stroke-width:1;stroke-miterlimit:4;stroke-dasharray:none;stroke-opacity:1;filter:url(#filter5551)" />
      <path
         inkscape:connector-curvature="0"
         id="path6809"
         d="m 431.38187,549.53966 7.17248,13.32032 c 0,0 9.01683,2.25421 10.04147,2.25421 1.02464,0 13.11539,-1.02464 13.11539,-1.02464 l 3.27885,0.20492 -4.50842,4.91828 c 0,0 -7.58233,0.20492 -8.40205,0.61478 -0.81971,0.40986 -8.40204,-0.81971 -9.22176,-1.22957 -0.81971,-0.40985 -4.50841,-2.04928 -4.50841,-2.04928 l -2.86899,-3.6887 z"
         style="fill:#bf8a51;fill-opacity:1;fill-rule:evenodd;stroke:none;stroke-width:1px;stroke-linecap:butt;stroke-linejoin:miter;stroke-opacity:1;filter:url(#filter5565)" />
    </g>
  </g>
</svg>
